<mxfile>
    <diagram id="JNB51mKcszAIvmOZlkip" name="第 1 页">
        <mxGraphModel dx="935" dy="718" grid="1" gridSize="10" guides="1" tooltips="1" connect="1" arrows="1" fold="1" page="1" pageScale="1" pageWidth="1169" pageHeight="827" background="#ffffff" math="0" shadow="0">
            <root>
                <mxCell id="0"/>
                <mxCell id="1" parent="0"/>
                <mxCell id="38" value="" style="shape=stencil(lZzbkhzHDUS/Zl876n55luX/UIQok2GaVFD07e+N8kbN9CR6zohvyyVyp7sKBSQSqHnLP/3x8ZffP7yl8Mf3b1///uHfn379/vEt/+UtpU9fPn749um7/fSWf37LP/329duHv337+s8vv77/+/dfluX66R9f/7X+wn/ecbMcLS9UCv99/01OR4z//81f3wGfP315BNSpgNQAkI/eHgHxqAEA6Qj1AZDm0ScA4hEFMI5RngPGPFp4BPRj/fMpoB9dPqEeqQOgHjU9AvIRCJCPLIDA7xCPEh8AcR4BlrVP3enY8R362I5wA9Rjwir1drTxCChHB1/q9ciPvhTzMegdypGzAiI9UtZ9iOloFQDp6EEBCfahx2PIJ8SjEyDsRTwBcB/CEeWlzTVgWdvcB/IEyAQY+0BuwDwGPFHrR+tiX2DbWjvmoyeNY0LIMPsYxL7AkjY7jI/Hs6OjtnKUJPb4/OZF5cG+HQOcqJkTDbHPA+3Do33dC3Ztb2df7WsG+6DrXzHGm72sT9kv9Mw+NLGvsF/VQtEUe0ohZp+H2Af6++ZektTwSJp96WJP/la7rmfG9TR7OZBp55Nr+6Y5Nu1AeW1f9XnMocAfzF7D6M7R1/a3MH63L+APZh8lEfD+5qMVscf9teV+tLeASM+T9vbf7dEfLOQPsW+0nnFnrbt9hfhj9kmfp5D/2Mcnsc8Qr8rc4fVuT/TG7N3zRNivYvmiqz08f+l7e+72AfbL7CWeh00Jr+2NeES1h/0y++DsaT2r5scX9uWY88fsq1sfto/qD2iflZi9tHf+gPYu3720z+o/aB81nr+0d+c3Qvwswfszncc8lcJxfDD7pM8/yX4o34jIQXPX9Y87YDyzD4/Pz/kit718d/sK8SFXn78mPX/dH3/Pp5mep2jtY/kd+Gq2quLx798S1DP7pPZUNGRXNNRNiJ7ZC6OvWBFbwSz5sWK+M/uo/DORPwflY20XyM/sk/Jh8udVvys/T3AezT51sSd/tvJAJAYjaOAPZp+0viB/S67eGXvBntkHrY+o+Lflkyp1Yr2wygOt10ggMfssRW3Asvnu7ycAMT47gHMoYNCSOr3DqmDiHPeQcwIUeum49ZMTYNBLB2VNVvpTmFhZaCqAVinOI3YFUCUfh6vkWe+I/UJRKQRoSj0M0Algocd9Ah02AyTZ6YLZOHrns3gPrrH+XlNAo33IWg8YgAKYAYSw2FuRa9i+6nmovA9JKYgBOj2SyyG2lZR0zPslyBuAqlwDaNRomGZjcCeu8yqFLbucAJR45qYRN/uxj+ATe9FJzL6ifZDnmbvSvBZhj1rVngrLobx9FXIk/Slvt6CGcueW+U72g4Q25bFLmCDhb8tMJ1WbROqmPMQSCwlbdT/tzf5WqT2xl+BlK4BCjPKWlfipsFR/Mw8h4uubKQGFQidnL2YI619UZzOmSs+fVZcw5tyIKOv+GjNH4r5p5c2+o1CVnC43UO9PWtdbpVaISGndtypNiroapVdlDc8T9TwuJQHW3/VoSt+f+MRe64KwW1uX9kF1lZrQH4Jm1npTHp7Yq87ckByE/ek3+7Eroyf2Ume1gEQ2qO63lHZ8HukktvLK/jEetobMI2i+aGP/hT9pz/HE2XcWOsOWTW/2CfNF0Dqls5AdNH91FuKD6gZmT3w3KN3t3NgISst6Q6HE+XPnRk7Qurt35A/B1aFcWLpWYOfCL2qfaAQsjKPqqCOi/1i8EnvLL0QRNT6Pgvwnqk412q7En8Vn+fudaz7VkQYPAiSNJ2NivkvKH2bgklLz+7wpOU/shQ/PhEJ/0r6V2RO/SqorTqsOqUrX/TV7aqzeovHN3hgOFfU7GpzsqTGWnO5Rd8Z8wk+Cs6/IlyT/mj01qrPqVLPheclanZs9FXlZ64vZsd7JWuKZPVWdeUe/kz0JW0Xjz+R8V/ZqnOyxceX8bWAjzfHzObiRqfWR2RMfq6rrzomNzOb8Z6Ig5Pq8Zk98qW2l5WRP+bTv03e2h/3tWn+ZPWk7w/WRA3dmhhLWV4C5+deffIMYNAXMiSElBq3ZJnOyGJWkGACTpGUxOWXsddGH3YGySMxbTj8BsI4pLjB27EDE4iZ+Gu9D1dJncg8iNuWWs+LZN4D40mRyH7tWtwYgdSEOpa8z8zuMXb2c8jFKbFMlNiMI6K1TO1kGoHdYlFo2LmBJvDiscK6Jzc27JHUiXdh9icpCDEDjaUvEelzWNY9JgKR1pQFIcl5ER96hYWG8mEhXALVQV+p/jBqjYmm5WpqOWxN3Xy2YqQDsIhVVS8YLdle0BWMA7AoVzScGQG+t2lEZCZX8ldGrAtC9q47+Wkk0uXcmNZoB8Dw0DcbjVoY9A0iVaVUdxdbVXowKoDJ58QBXN2Jnq2sgs8KUiJXvqL6oZFcHNSmAqOTS5qUWf9GEnVrMrmKcAaJOGgDb+G5MsndcJQMIE+g8eLom5bsCqJN8149PCgeORtwE/xOAUtZdcT4BqHGbs4bKXtG9c9E8bYBG4wvVyUwVE0quSh0MQDpZbk44KnsrrwFdZ+cNQMpm7k46KjzD42ZWDUC1fJ4X4h0VM/k2BH4CULVdgo4xLHkQ3qHEC/2R9IsSlax3nvwpTuExQKMOTlKiuwA8KxfdIxF1MIAUlT2jKFGKspn7rYZnAD3TGWWz4sj6AtCyNhXWXwO6ewcEuEGGV4Ch2sRrQP+xl55a7S4AeevU9lLPKIfVoASrZ7wasgaJnS8R0a1uKMYANIpbkzvTCUlidT3Bzj0aA2iYSViL1uLeIfG4eHWAiNy7NtWVesAwU8dFo4ZkjTqV6DYeEWvuElAbuNPNzwD2HUeuAUnndBpX7C2pOt8qHqB2i0I3AMu9zU2VGYD64+tijwDyZlDPAMMBKMe1qvW0LQMlFANIymq3LvUzgL50RK5h2yRdMANQl8oAMv5kgESA7vqugS9wOanFAFTHGWC6TyA2Y96fHQC9dWhStDNIhV9zlyIMgMMxU7sZBqCyzGKEyPvrohPJuVEz0D2OXAOSBgGLVHSz754NTgCiob1oLWoAHGmqWsfVwTNNzQH6bgNdA7qSk8pyUXfXuQxABKu7eWMDUJ933b11n0BF03CTcQZAYT1q2rUkRq2BJXsUBVCVdVdiTgCqp0d23tpwmmUUt9MVd3oUnSs3AA3qj6oVuwEozIzmlpUHPw0w3YgNtZT91XIDkK4x3OUQA1DaHVOptAGoCzeDjg3UgiRxXcAXb81Y4q8r/g5AjfHpbhhVnmuetzLvBKCNm0U7TTWh803HBGrCW6+rlzwVQFxjNqUOlbsDs6uiey8QngFE56sBD9AcKm4WzqKrc9UUQKFy9cbkEwa7hrvtXvj29+rJTgUQdTCAH/sjjWxOXVarsCkYr6bmUAAlxem0Siv6qcSf7kpoyTj6dGrMnhA4t3+BSDyedImgMugKEZHhXyMoml0hAo7NXiOIyU0nDaw7hXTw3P7liYx6Tk1EBiBidm+snwDURF6Ax0S0pnnZaYWC54HK1zp4TQGJP0FyY34dCxzgRbSREZI18szLKor80ob5kYS+5oacfUXMpAA6dnO4sfCGbYg5dK4oszQwh/uSoPoqTUj2NQAVW9PVf5lHu+ZQecMAJMZN9/U3q89Aj9S10ZELNsINIAWjAWgcbLp7iKtXQvvg6nADYFxysmsu7K3uqv7q9/A7CFfM/OUcs7lLA6zprJk690hE8g0gsuuLaxVrys99AjLqpt9QlXmS5D53eAJQwWgA/ZYtFrLWdE13AOa7euk64+UHT5Bz4iBQ9R5f5nvjs7r7MAlnJKYbGFwAegenNWe+IbVmkMIPAl59AZv9cP/6tt8+ff78/u1v5//Xr3uzX71/VVz++X8=);fillColor=none;rounded=1;glass=0;dashed=1;strokeWidth=2;fontSize=20;fontColor=#FF0080;strokeColor=#FFB366;" vertex="1" parent="1">
                    <mxGeometry x="202.6470588235295" y="66.70588235294122" width="832.9411764705883" height="534.8529411764706" as="geometry"/>
                </mxCell>
                <mxCell id="12" style="edgeStyle=none;rounded=1;orthogonalLoop=1;jettySize=auto;html=1;exitX=0.5;exitY=1;exitDx=0;exitDy=0;entryX=0.5;entryY=0;entryDx=0;entryDy=0;fontSize=20;fontStyle=1;strokeWidth=4;strokeColor=#B3B3B3;" edge="1" parent="1" source="2" target="5">
                    <mxGeometry relative="1" as="geometry"/>
                </mxCell>
                <mxCell id="2" value="2" style="ellipse;whiteSpace=wrap;html=1;fontSize=20;fontStyle=1;strokeWidth=5;" vertex="1" parent="1">
                    <mxGeometry x="560" y="110" width="80" height="80" as="geometry"/>
                </mxCell>
                <mxCell id="14" style="edgeStyle=none;rounded=1;orthogonalLoop=1;jettySize=auto;html=1;exitX=0;exitY=0;exitDx=0;exitDy=0;entryX=0.975;entryY=0.7;entryDx=0;entryDy=0;entryPerimeter=0;fontSize=20;fontStyle=1;strokeWidth=4;strokeColor=#B3B3B3;" edge="1" parent="1" source="3" target="2">
                    <mxGeometry relative="1" as="geometry"/>
                </mxCell>
                <mxCell id="3" value="4" style="ellipse;whiteSpace=wrap;html=1;fontSize=20;fontStyle=1;strokeWidth=5;" vertex="1" parent="1">
                    <mxGeometry x="830" y="270" width="80" height="80" as="geometry"/>
                </mxCell>
                <mxCell id="9" style="rounded=1;orthogonalLoop=1;jettySize=auto;html=1;exitX=1;exitY=0.5;exitDx=0;exitDy=0;entryX=0;entryY=0.5;entryDx=0;entryDy=0;fontSize=20;fontStyle=1;strokeWidth=4;strokeColor=#B3B3B3;" edge="1" parent="1" source="4" target="2">
                    <mxGeometry relative="1" as="geometry"/>
                </mxCell>
                <mxCell id="10" style="edgeStyle=none;rounded=1;orthogonalLoop=1;jettySize=auto;html=1;exitX=1;exitY=1;exitDx=0;exitDy=0;entryX=0;entryY=0.5;entryDx=0;entryDy=0;fontSize=20;fontStyle=1;strokeWidth=4;strokeColor=#B3B3B3;" edge="1" parent="1" source="4" target="5">
                    <mxGeometry relative="1" as="geometry"/>
                </mxCell>
                <mxCell id="4" value="1" style="ellipse;whiteSpace=wrap;html=1;fontSize=20;fontStyle=1;strokeWidth=5;" vertex="1" parent="1">
                    <mxGeometry x="310" y="180" width="80" height="80" as="geometry"/>
                </mxCell>
                <mxCell id="16" style="edgeStyle=none;rounded=1;orthogonalLoop=1;jettySize=auto;html=1;exitX=1;exitY=0.5;exitDx=0;exitDy=0;entryX=0;entryY=1;entryDx=0;entryDy=0;fontSize=20;fontStyle=1;strokeWidth=4;strokeColor=#B3B3B3;" edge="1" parent="1" source="5" target="3">
                    <mxGeometry relative="1" as="geometry"/>
                </mxCell>
                <mxCell id="18" style="edgeStyle=none;rounded=1;orthogonalLoop=1;jettySize=auto;html=1;exitX=0;exitY=1;exitDx=0;exitDy=0;entryX=1;entryY=0;entryDx=0;entryDy=0;fontSize=20;fontStyle=1;strokeWidth=4;strokeColor=#B3B3B3;" edge="1" parent="1" source="5" target="6">
                    <mxGeometry relative="1" as="geometry"/>
                </mxCell>
                <mxCell id="21" style="edgeStyle=none;rounded=1;orthogonalLoop=1;jettySize=auto;html=1;exitX=1;exitY=1;exitDx=0;exitDy=0;entryX=0;entryY=0;entryDx=0;entryDy=0;fontSize=20;fontStyle=1;strokeWidth=4;strokeColor=#B3B3B3;" edge="1" parent="1" source="5" target="7">
                    <mxGeometry relative="1" as="geometry"/>
                </mxCell>
                <mxCell id="5" value="3" style="ellipse;whiteSpace=wrap;html=1;fontSize=20;fontStyle=1;strokeWidth=5;" vertex="1" parent="1">
                    <mxGeometry x="590" y="334" width="80" height="80" as="geometry"/>
                </mxCell>
                <mxCell id="17" style="edgeStyle=none;rounded=1;orthogonalLoop=1;jettySize=auto;html=1;exitX=1;exitY=0.5;exitDx=0;exitDy=0;entryX=0;entryY=0.5;entryDx=0;entryDy=0;fontSize=20;fontStyle=1;strokeWidth=4;strokeColor=#B3B3B3;" edge="1" parent="1" source="6" target="8">
                    <mxGeometry relative="1" as="geometry"/>
                </mxCell>
                <mxCell id="19" style="edgeStyle=none;rounded=1;orthogonalLoop=1;jettySize=auto;html=1;exitX=0.5;exitY=0;exitDx=0;exitDy=0;entryX=0.3;entryY=1.025;entryDx=0;entryDy=0;entryPerimeter=0;fontSize=20;fontStyle=1;strokeWidth=4;strokeColor=#B3B3B3;" edge="1" parent="1" source="6" target="4">
                    <mxGeometry relative="1" as="geometry"/>
                </mxCell>
                <mxCell id="6" value="7" style="ellipse;whiteSpace=wrap;html=1;fontSize=20;fontStyle=1;strokeWidth=5;" vertex="1" parent="1">
                    <mxGeometry x="250" y="500" width="80" height="80" as="geometry"/>
                </mxCell>
                <mxCell id="7" value="5" style="ellipse;whiteSpace=wrap;html=1;fontSize=20;fontStyle=1;strokeWidth=5;" vertex="1" parent="1">
                    <mxGeometry x="810" y="430" width="80" height="80" as="geometry"/>
                </mxCell>
                <mxCell id="20" style="edgeStyle=none;rounded=1;orthogonalLoop=1;jettySize=auto;html=1;exitX=1;exitY=0.5;exitDx=0;exitDy=0;entryX=0;entryY=1;entryDx=0;entryDy=0;fontSize=20;fontStyle=1;strokeWidth=4;strokeColor=#B3B3B3;" edge="1" parent="1" source="8" target="7">
                    <mxGeometry relative="1" as="geometry"/>
                </mxCell>
                <mxCell id="8" value="6" style="ellipse;whiteSpace=wrap;html=1;fontSize=20;fontStyle=1;strokeWidth=5;" vertex="1" parent="1">
                    <mxGeometry x="470" y="540" width="80" height="80" as="geometry"/>
                </mxCell>
                <mxCell id="22" value="&lt;b&gt;dfn:1&lt;br&gt;low:1&lt;br&gt;&lt;/b&gt;" style="text;html=1;resizable=0;autosize=1;align=center;verticalAlign=middle;points=[];fillColor=none;strokeColor=none;rounded=0;fontSize=20;" vertex="1" parent="1">
                    <mxGeometry x="270" y="125" width="70" height="50" as="geometry"/>
                </mxCell>
                <mxCell id="23" value="&lt;b&gt;dfn:2&lt;br&gt;low:1&lt;br&gt;&lt;/b&gt;" style="text;html=1;resizable=0;autosize=1;align=center;verticalAlign=middle;points=[];fillColor=none;rounded=1;fontSize=20;dashed=1;strokeWidth=2;" vertex="1" parent="1">
                    <mxGeometry x="565" y="55" width="70" height="50" as="geometry"/>
                </mxCell>
                <mxCell id="24" value="dfn:3&lt;br&gt;low:1" style="text;html=1;resizable=0;autosize=1;align=center;verticalAlign=middle;points=[];fillColor=none;rounded=1;fontSize=20;fontStyle=1;strokeWidth=2;dashed=1;" vertex="1" parent="1">
                    <mxGeometry x="585" y="415" width="70" height="50" as="geometry"/>
                </mxCell>
                <mxCell id="27" value="dfn:4&lt;br&gt;low:2" style="text;html=1;resizable=0;autosize=1;align=center;verticalAlign=middle;points=[];fillColor=none;rounded=1;fontSize=20;fontStyle=1;strokeWidth=2;dashed=1;" vertex="1" parent="1">
                    <mxGeometry x="920" y="284" width="70" height="50" as="geometry"/>
                </mxCell>
                <mxCell id="29" value="dfn:5&lt;br&gt;low:5" style="text;html=1;resizable=0;autosize=1;align=center;verticalAlign=middle;points=[];fillColor=none;rounded=1;fontSize=20;fontStyle=1;strokeWidth=2;dashed=1;" vertex="1" parent="1">
                    <mxGeometry x="900" y="465" width="70" height="50" as="geometry"/>
                </mxCell>
                <mxCell id="30" value="" style="whiteSpace=wrap;html=1;rounded=1;glass=0;strokeWidth=2;fontSize=20;fontColor=#B3B3B3;fillColor=none;dashed=1;strokeColor=#9999FF;" vertex="1" parent="1">
                    <mxGeometry x="780" y="385" width="200" height="170" as="geometry"/>
                </mxCell>
                <mxCell id="31" value="SCC_1" style="text;html=1;resizable=0;autosize=1;align=center;verticalAlign=middle;points=[];fillColor=none;rounded=1;fontSize=20;fontStyle=1;strokeWidth=2;dashed=1;fontColor=#9999FF;" vertex="1" parent="1">
                    <mxGeometry x="985" y="410" width="80" height="30" as="geometry"/>
                </mxCell>
                <mxCell id="32" value="dfn:6&lt;br&gt;low:1" style="text;html=1;resizable=0;autosize=1;align=center;verticalAlign=middle;points=[];fillColor=none;rounded=1;fontSize=20;fontStyle=1;strokeWidth=2;dashed=1;" vertex="1" parent="1">
                    <mxGeometry x="330" y="555" width="70" height="50" as="geometry"/>
                </mxCell>
                <mxCell id="33" value="dfn:7&lt;br&gt;low:7" style="text;html=1;resizable=0;autosize=1;align=center;verticalAlign=middle;points=[];fillColor=none;rounded=1;fontSize=20;fontStyle=1;strokeWidth=2;dashed=1;" vertex="1" parent="1">
                    <mxGeometry x="540" y="505" width="70" height="50" as="geometry"/>
                </mxCell>
                <mxCell id="35" value="" style="whiteSpace=wrap;html=1;rounded=1;glass=0;strokeWidth=2;fontSize=20;fontColor=#B3B3B3;fillColor=none;dashed=1;strokeColor=#FF0080;" vertex="1" parent="1">
                    <mxGeometry x="435" y="490" width="200" height="170" as="geometry"/>
                </mxCell>
                <mxCell id="36" value="SCC_2" style="text;html=1;resizable=0;autosize=1;align=center;verticalAlign=middle;points=[];fillColor=none;rounded=1;fontSize=20;fontStyle=1;strokeWidth=2;dashed=1;fontColor=#FF0080;" vertex="1" parent="1">
                    <mxGeometry x="655" y="600" width="80" height="30" as="geometry"/>
                </mxCell>
                <mxCell id="39" value="SCC_3" style="text;html=1;resizable=0;autosize=1;align=center;verticalAlign=middle;points=[];fillColor=none;rounded=1;fontSize=20;fontStyle=1;strokeWidth=2;dashed=1;fontColor=#FFB366;" vertex="1" parent="1">
                    <mxGeometry x="830" y="95" width="80" height="30" as="geometry"/>
                </mxCell>
            </root>
        </mxGraphModel>
    </diagram>
</mxfile>